<svg xmlns="http://www.w3.org/2000/svg" xmlns:xlink="http://www.w3.org/1999/xlink" contentStyleType="text/css" height="430px" preserveAspectRatio="none" style="width:713px;height:430px;background:#FFFFFF;" version="1.1" viewBox="0 0 713 430" width="713px" zoomAndPan="magnify"><defs/><g><!--class Config--><g id="elem_Config"><rect codeLine="1" fill="#F1F1F1" height="210.9688" id="Config" rx="2.5" ry="2.5" style="stroke:#181818;stroke-width:0.5;" width="233.498" x="9" y="7"/><ellipse cx="99.0396" cy="23" fill="#A9DCDF" rx="11" ry="11" style="stroke:#181818;stroke-width:1.0;"/><path d="M99.1489,18.3438 L97.9927,23.4219 L100.3208,23.4219 L99.1489,18.3438 Z M97.6646,16.1094 L100.6489,16.1094 L104.0083,28.5 L101.5552,28.5 L100.7896,25.4375 L97.5083,25.4375 L96.7583,28.5 L94.3208,28.5 L97.6646,16.1094 Z " fill="#000000"/><text fill="#000000" font-family="sans-serif" font-size="14" font-style="italic" lengthAdjust="spacing" textLength="44.9189" x="119.5396" y="27.8467">Config</text><line style="stroke:#181818;stroke-width:0.5;" x1="10" x2="241.498" y1="39" y2="39"/><polygon fill="none" points="20,47.6484,24,51.6484,20,55.6484,16,51.6484" style="stroke:#B38D22;stroke-width:1.0;"/><text fill="#000000" font-family="sans-serif" font-size="14" lengthAdjust="spacing" text-decoration="underline" textLength="82.1064" x="29" y="55.9951">data : array</text><polygon fill="none" points="20,63.9453,24,67.9453,20,71.9453,16,67.9453" style="stroke:#B38D22;stroke-width:1.0;"/><text fill="#000000" font-family="sans-serif" font-size="14" lengthAdjust="spacing" text-decoration="underline" textLength="137.0674" x="29" y="72.292">components : array</text><line style="stroke:#181818;stroke-width:0.5;" x1="10" x2="241.498" y1="79.5938" y2="79.5938"/><ellipse cx="20" cy="93.2422" fill="#84BE84" rx="3" ry="3" style="stroke:#038048;stroke-width:1.0;"/><text fill="#000000" font-family="sans-serif" font-size="14" lengthAdjust="spacing" text-decoration="underline" textLength="177.5771" x="29" y="96.5889">saveEnvFile(string) : void</text><ellipse cx="20" cy="109.5391" fill="#84BE84" rx="3" ry="3" style="stroke:#038048;stroke-width:1.0;"/><text fill="#000000" font-family="sans-serif" font-size="14" lengthAdjust="spacing" text-decoration="underline" textLength="170.5635" x="29" y="112.8857">getValue(string) : mixed</text><ellipse cx="20" cy="125.8359" fill="#84BE84" rx="3" ry="3" style="stroke:#038048;stroke-width:1.0;"/><text fill="#000000" font-family="sans-serif" font-size="14" lengthAdjust="spacing" text-decoration="underline" textLength="207.498" x="29" y="129.1826">setValue(string, mixed) : void</text><ellipse cx="20" cy="142.1328" fill="#84BE84" rx="3" ry="3" style="stroke:#038048;stroke-width:1.0;"/><text fill="#000000" font-family="sans-serif" font-size="14" lengthAdjust="spacing" text-decoration="underline" textLength="100.3242" x="29" y="145.4795">datas() : array</text><ellipse cx="20" cy="158.4297" fill="#84BE84" rx="3" ry="3" style="stroke:#038048;stroke-width:1.0;"/><text fill="#000000" font-family="sans-serif" font-size="14" lengthAdjust="spacing" text-decoration="underline" textLength="131.0313" x="29" y="161.7764">get(string) : mixed</text><ellipse cx="20" cy="174.7266" fill="#84BE84" rx="3" ry="3" style="stroke:#038048;stroke-width:1.0;"/><text fill="#000000" font-family="sans-serif" font-size="14" lengthAdjust="spacing" text-decoration="underline" textLength="167.9658" x="29" y="178.0732">set(string, mixed) : void</text><ellipse cx="20" cy="191.0234" fill="#84BE84" rx="3" ry="3" style="stroke:#038048;stroke-width:1.0;"/><text fill="#000000" font-family="sans-serif" font-size="14" lengthAdjust="spacing" text-decoration="underline" textLength="76.3096" x="29" y="194.3701">init() : void</text><polygon fill="#FFFF44" points="20,202.3203,24,206.3203,20,210.3203,16,206.3203" style="stroke:#B38D22;stroke-width:1.0;"/><text fill="#000000" font-family="sans-serif" font-size="14" lengthAdjust="spacing" text-decoration="underline" textLength="176.6406" x="29" y="210.667">readEnvFile(string) : void</text></g><!--class IDb--><g id="elem_IDb"><rect codeLine="15" fill="#F1F1F1" height="96.8906" id="IDb" rx="2.5" ry="2.5" style="stroke:#181818;stroke-width:0.5;" width="229.2803" x="277.11" y="64.04"/><ellipse cx="375.6022" cy="80.04" fill="#B4A7E5" rx="11" ry="11" style="stroke:#181818;stroke-width:1.0;"/><path d="M371.5241,75.8056 L371.5241,73.6494 L378.9147,73.6494 L378.9147,75.8056 L376.4459,75.8056 L376.4459,83.8838 L378.9147,83.8838 L378.9147,86.04 L371.5241,86.04 L371.5241,83.8838 L373.9928,83.8838 L373.9928,75.8056 L371.5241,75.8056 Z " fill="#000000"/><text fill="#000000" font-family="sans-serif" font-size="14" font-style="italic" lengthAdjust="spacing" textLength="23.7959" x="396.1022" y="84.8867">IDb</text><line style="stroke:#181818;stroke-width:0.5;" x1="278.11" x2="505.3903" y1="96.04" y2="96.04"/><line style="stroke:#181818;stroke-width:0.5;" x1="278.11" x2="505.3903" y1="104.04" y2="104.04"/><ellipse cx="288.11" cy="117.6884" fill="#84BE84" rx="3" ry="3" style="stroke:#038048;stroke-width:1.0;"/><text fill="#000000" font-family="sans-serif" font-size="14" lengthAdjust="spacing" textLength="203.2803" x="297.11" y="121.0351">query(string, array=[]) : void</text><ellipse cx="288.11" cy="133.9853" fill="#84BE84" rx="3" ry="3" style="stroke:#038048;stroke-width:1.0;"/><text fill="#000000" font-family="sans-serif" font-size="14" lengthAdjust="spacing" textLength="114.4541" x="297.11" y="137.332">fetchAll() : array</text><ellipse cx="288.11" cy="150.2822" fill="#84BE84" rx="3" ry="3" style="stroke:#038048;stroke-width:1.0;"/><text fill="#000000" font-family="sans-serif" font-size="14" lengthAdjust="spacing" textLength="97.0977" x="297.11" y="153.6289">fetch() : array</text></g><!--class Db--><g id="elem_Db"><rect codeLine="21" fill="#F1F1F1" height="129.4844" id="Db" rx="2.5" ry="2.5" style="stroke:#181818;stroke-width:0.5;" width="229.2803" x="277.11" y="286.12"/><ellipse cx="377.6666" cy="302.12" fill="#ADD1B2" rx="11" ry="11" style="stroke:#181818;stroke-width:1.0;"/><path d="M380.6354,307.7606 Q380.0573,308.0575 379.4166,308.1981 Q378.776,308.3544 378.0729,308.3544 Q375.5729,308.3544 374.2448,306.7138 Q372.9323,305.0575 372.9323,301.9325 Q372.9323,298.8075 374.2448,297.1513 Q375.5729,295.495 378.0729,295.495 Q378.776,295.495 379.4166,295.6513 Q380.0729,295.8075 380.6354,296.1044 L380.6354,298.8231 Q380.0104,298.245 379.4166,297.9794 Q378.8229,297.6981 378.1979,297.6981 Q376.8541,297.6981 376.1666,298.7763 Q375.4791,299.8388 375.4791,301.9325 Q375.4791,304.0263 376.1666,305.1044 Q376.8541,306.1669 378.1979,306.1669 Q378.8229,306.1669 379.4166,305.9013 Q380.0104,305.62 380.6354,305.0419 L380.6354,307.7606 Z " fill="#000000"/><text fill="#000000" font-family="sans-serif" font-size="14" lengthAdjust="spacing" textLength="19.667" x="398.1666" y="306.9667">Db</text><line style="stroke:#181818;stroke-width:0.5;" x1="278.11" x2="505.3903" y1="318.12" y2="318.12"/><polygon fill="none" points="288.11,326.7684,292.11,330.7684,288.11,334.7684,284.11,330.7684" style="stroke:#B38D22;stroke-width:1.0;"/><text fill="#000000" font-family="sans-serif" font-size="14" lengthAdjust="spacing" textLength="116.0947" x="297.11" y="335.1151">connexion : PDO</text><polygon fill="none" points="288.11,343.0653,292.11,347.0653,288.11,351.0653,284.11,347.0653" style="stroke:#B38D22;stroke-width:1.0;"/><text fill="#000000" font-family="sans-serif" font-size="14" lengthAdjust="spacing" textLength="189.6084" x="297.11" y="351.412">statement : PDOStatement</text><line style="stroke:#181818;stroke-width:0.5;" x1="278.11" x2="505.3903" y1="358.7138" y2="358.7138"/><ellipse cx="288.11" cy="372.3622" fill="#84BE84" rx="3" ry="3" style="stroke:#038048;stroke-width:1.0;"/><text fill="#000000" font-family="sans-serif" font-size="14" lengthAdjust="spacing" textLength="203.2803" x="297.11" y="375.7089">query(string, array=[]) : void</text><ellipse cx="288.11" cy="388.6591" fill="#84BE84" rx="3" ry="3" style="stroke:#038048;stroke-width:1.0;"/><text fill="#000000" font-family="sans-serif" font-size="14" lengthAdjust="spacing" textLength="114.4541" x="297.11" y="392.0057">fetchAll() : array</text><ellipse cx="288.11" cy="404.9559" fill="#84BE84" rx="3" ry="3" style="stroke:#038048;stroke-width:1.0;"/><text fill="#000000" font-family="sans-serif" font-size="14" lengthAdjust="spacing" textLength="97.0977" x="297.11" y="408.3026">fetch() : array</text></g><!--class ILogger--><g id="elem_ILogger"><rect codeLine="29" fill="#F1F1F1" height="129.4844" id="ILogger" rx="2.5" ry="2.5" style="stroke:#181818;stroke-width:0.5;" width="164.5029" x="541.5" y="47.74"/><ellipse cx="593.1831" cy="63.74" fill="#B4A7E5" rx="11" ry="11" style="stroke:#181818;stroke-width:1.0;"/><path d="M589.105,59.5056 L589.105,57.3494 L596.4956,57.3494 L596.4956,59.5056 L594.0269,59.5056 L594.0269,67.5838 L596.4956,67.5838 L596.4956,69.74 L589.105,69.74 L589.105,67.5838 L591.5737,67.5838 L591.5737,59.5056 L589.105,59.5056 Z " fill="#000000"/><text fill="#000000" font-family="sans-serif" font-size="14" font-style="italic" lengthAdjust="spacing" textLength="52.6367" x="613.6831" y="68.5867">ILogger</text><line style="stroke:#181818;stroke-width:0.5;" x1="542.5" x2="705.0029" y1="79.74" y2="79.74"/><line style="stroke:#181818;stroke-width:0.5;" x1="542.5" x2="705.0029" y1="87.74" y2="87.74"/><ellipse cx="552.5" cy="101.3884" fill="#84BE84" rx="3" ry="3" style="stroke:#038048;stroke-width:1.0;"/><text fill="#000000" font-family="sans-serif" font-size="14" lengthAdjust="spacing" textLength="128.8027" x="561.5" y="104.7351">error(string) : void</text><ellipse cx="552.5" cy="117.6853" fill="#84BE84" rx="3" ry="3" style="stroke:#038048;stroke-width:1.0;"/><text fill="#000000" font-family="sans-serif" font-size="14" lengthAdjust="spacing" textLength="129.0146" x="561.5" y="121.032">warn(string) : void</text><ellipse cx="552.5" cy="133.9822" fill="#84BE84" rx="3" ry="3" style="stroke:#038048;stroke-width:1.0;"/><text fill="#000000" font-family="sans-serif" font-size="14" lengthAdjust="spacing" textLength="120.6133" x="561.5" y="137.3289">info(string) : void</text><ellipse cx="552.5" cy="150.2791" fill="#84BE84" rx="3" ry="3" style="stroke:#038048;stroke-width:1.0;"/><text fill="#000000" font-family="sans-serif" font-size="14" lengthAdjust="spacing" textLength="138.5029" x="561.5" y="153.6257">debug(string) : void</text><ellipse cx="552.5" cy="166.5759" fill="#84BE84" rx="3" ry="3" style="stroke:#038048;stroke-width:1.0;"/><text fill="#000000" font-family="sans-serif" font-size="14" lengthAdjust="spacing" textLength="131.0176" x="561.5" y="169.9226">setLevel(int) : void</text></g><!--class Logger--><g id="elem_Logger"><rect codeLine="37" fill="#F1F1F1" height="145.7813" id="Logger" rx="2.5" ry="2.5" style="stroke:#181818;stroke-width:0.5;" width="164.5029" x="541.5" y="277.97"/><ellipse cx="595.2476" cy="293.97" fill="#ADD1B2" rx="11" ry="11" style="stroke:#181818;stroke-width:1.0;"/><path d="M598.2163,299.6106 Q597.6382,299.9075 596.9976,300.0481 Q596.3569,300.2044 595.6538,300.2044 Q593.1538,300.2044 591.8257,298.5638 Q590.5132,296.9075 590.5132,293.7825 Q590.5132,290.6575 591.8257,289.0013 Q593.1538,287.345 595.6538,287.345 Q596.3569,287.345 596.9976,287.5013 Q597.6538,287.6575 598.2163,287.9544 L598.2163,290.6731 Q597.5913,290.095 596.9976,289.8294 Q596.4038,289.5481 595.7788,289.5481 Q594.4351,289.5481 593.7476,290.6263 Q593.0601,291.6888 593.0601,293.7825 Q593.0601,295.8763 593.7476,296.9544 Q594.4351,298.0169 595.7788,298.0169 Q596.4038,298.0169 596.9976,297.7513 Q597.5913,297.47 598.2163,296.8919 L598.2163,299.6106 Z " fill="#000000"/><text fill="#000000" font-family="sans-serif" font-size="14" lengthAdjust="spacing" textLength="48.5078" x="615.7476" y="298.8167">Logger</text><line style="stroke:#181818;stroke-width:0.5;" x1="542.5" x2="705.0029" y1="309.97" y2="309.97"/><polygon fill="none" points="552.5,318.6184,556.5,322.6184,552.5,326.6184,548.5,322.6184" style="stroke:#B38D22;stroke-width:1.0;"/><text fill="#000000" font-family="sans-serif" font-size="14" lengthAdjust="spacing" textLength="65.1602" x="561.5" y="326.9651">level : int</text><line style="stroke:#181818;stroke-width:0.5;" x1="542.5" x2="705.0029" y1="334.2669" y2="334.2669"/><ellipse cx="552.5" cy="347.9153" fill="#84BE84" rx="3" ry="3" style="stroke:#038048;stroke-width:1.0;"/><text fill="#000000" font-family="sans-serif" font-size="14" lengthAdjust="spacing" textLength="128.8027" x="561.5" y="351.262">error(string) : void</text><ellipse cx="552.5" cy="364.2122" fill="#84BE84" rx="3" ry="3" style="stroke:#038048;stroke-width:1.0;"/><text fill="#000000" font-family="sans-serif" font-size="14" lengthAdjust="spacing" textLength="129.0146" x="561.5" y="367.5589">warn(string) : void</text><ellipse cx="552.5" cy="380.5091" fill="#84BE84" rx="3" ry="3" style="stroke:#038048;stroke-width:1.0;"/><text fill="#000000" font-family="sans-serif" font-size="14" lengthAdjust="spacing" textLength="120.6133" x="561.5" y="383.8557">info(string) : void</text><ellipse cx="552.5" cy="396.8059" fill="#84BE84" rx="3" ry="3" style="stroke:#038048;stroke-width:1.0;"/><text fill="#000000" font-family="sans-serif" font-size="14" lengthAdjust="spacing" textLength="138.5029" x="561.5" y="400.1526">debug(string) : void</text><ellipse cx="552.5" cy="413.1028" fill="#84BE84" rx="3" ry="3" style="stroke:#038048;stroke-width:1.0;"/><text fill="#000000" font-family="sans-serif" font-size="14" lengthAdjust="spacing" textLength="131.0176" x="561.5" y="416.4495">setLevel(int) : void</text></g><!--reverse link IDb to Db--><g id="link_IDb_Db"><path d="M391.75,179.32 C391.75,215.2 391.75,246.69 391.75,285.96 " fill="none" id="IDb-backto-Db" style="stroke:#181818;stroke-width:1.0;stroke-dasharray:7.0,7.0;"/><polygon fill="none" points="391.75,161.32,385.75,179.32,397.75,179.32,391.75,161.32" style="stroke:#181818;stroke-width:1.0;"/></g><!--reverse link ILogger to Logger--><g id="link_ILogger_Logger"><path d="M623.75,195.45 C623.75,226.35 623.75,245.56 623.75,277.5 " fill="none" id="ILogger-backto-Logger" style="stroke:#181818;stroke-width:1.0;stroke-dasharray:7.0,7.0;"/><polygon fill="none" points="623.75,177.45,617.75,195.45,629.75,195.45,623.75,177.45" style="stroke:#181818;stroke-width:1.0;"/></g><!--SRC=[nLB1IiGm4BttAmAzTAbV87WGgo0iA0XUnCCqdSQ1D5cJjEwoxB-RDBgc6D73WiUyUJFlpPj0Qvq1xXYNO2sxqgediIyOsri7ZlY1bHquOESCZ87Tei3riD4AbRF7SbglBKnuhQORabXv5L9YvOcJfcv14-WUGOufPw0jBabsIJgBbEoyuDTMgvpbeFMRp1yKI96hSfNI87G_h7me2b8EJGySsMtJXf3hrn7DxgWu-xruUav6rpqw_d8fvMAXY2QG7nuFsBICXet4OJxBXuo_b5Au9Qrymtrp5w1WUMP5wE7pUM9NoSfhBGIQUMqqHfllVw9-0wCoCAbUP-0Esr5aS7_4DKueAo-UnXyJYZOMANqvAsLez3qKa_WFe-y0]--></g></svg>